<svg width="208" height="66" viewBox="0 0 208 66" fill="none" xmlns="http://www.w3.org/2000/svg">
<path fill-rule="evenodd" clip-rule="evenodd" d="M32.27 1.191C30.663 1.981 28.733 5.672 25.365 14.394C22.794 21.052 19.946 27.497 19.5 28C19.021 28.542 15.446 27.243 10.189 25.665C5.305 24.199 1.014 23 0.654 23C0.294 23 0 26.331 0 30.403V37.805L7 39.931C10.85 41.101 14 42.489 14 43.015C14 43.542 12.2 48.765 10 54.622C7.8 60.479 6 65.435 6 65.636C6 65.836 10.646 66 16.324 66H26.648L29 58.5C30.294 54.375 31.754 51 32.246 51C33.538 51 41.67 56.624 47.659 61.661L52.819 66H70.887H88.956L89.228 47.25L89.5 28.5L94.845 44.286C97.945 53.441 101.238 61.318 102.684 63.036C104.967 65.75 105.715 66 111.546 66H117.914L121.04 55.75C122.759 50.112 125.366 41.675 126.833 37L129.5 28.5L129.772 47.25L130.044 66H140.022H150V33V0H137.223C127.49 0 123.935 0.357 122.306 1.498C120.846 2.521 118.707 7.362 115.567 16.748C113.038 24.312 110.619 31.05 110.192 31.722C109.725 32.458 107.895 28.279 105.593 21.222C99.077 1.247 97.604 0 80.532 0C74.739 0 69.914 0.112 69.809 0.25C69.704 0.388 69.367 12.107 69.059 26.294L68.5 52.088L58.858 26.294L49.215 0.5L41.858 0.297C37.811 0.186 33.496 0.588 32.27 1.191ZM190 2C188.086 3.914 188 5.333 188 35V66H198H208V33V0H200C193.333 0 191.667 0.333 190 2ZM45.674 41.659C45.553 41.781 43.351 40.572 40.781 38.972L36.109 36.064L38.218 29.82L40.327 23.575L43.111 32.506C44.643 37.419 45.796 41.537 45.674 41.659ZM158 36V43H168.5H179V36V29H168.5H158V36Z" fill="#DA212C"/>
</svg>
