<svg width="48" height="49" viewBox="0 0 48 49" fill="none" xmlns="http://www.w3.org/2000/svg">
<mask id="mask0_4348_205354" style="mask-type:alpha" maskUnits="userSpaceOnUse" x="0" y="0" width="48" height="49">
<rect y="0.5" width="48" height="48" fill="#D9D9D9"/>
</mask>
<g mask="url(#mask0_4348_205354)">
<path d="M23.9981 44.4998C22.8981 44.4998 21.9564 44.1081 21.1731 43.3248C20.3897 42.5414 19.9981 41.5998 19.9981 40.4998V24.4998C19.9981 23.3998 20.3897 22.4581 21.1731 21.6748C21.9564 20.8914 22.8981 20.4998 23.9981 20.4998H39.9981C41.0981 20.4998 42.0397 20.8914 42.8231 21.6748C43.6064 22.4581 43.9981 23.3998 43.9981 24.4998V40.4998C43.9981 41.5998 43.6064 42.5414 42.8231 43.3248C42.0397 44.1081 41.0981 44.4998 39.9981 44.4998H23.9981ZM23.9981 40.4998H39.9981V24.4998H23.9981V40.4998ZM11.998 36.4998V16.4998C11.998 15.3998 12.3897 14.4581 13.173 13.6748C13.9564 12.8914 14.898 12.4998 15.998 12.4998H35.9981V16.4998H15.998V36.4998H11.998ZM3.99805 28.4998V8.49976C3.99805 7.39976 4.38971 6.45809 5.17305 5.67476C5.95638 4.89142 6.89805 4.49976 7.99805 4.49976H27.9981V8.49976H7.99805V28.4998H3.99805Z" fill="#323C49"/>
</g>
</svg>
