<svg width="170" height="170" viewBox="0 0 170 170" fill="none" xmlns="http://www.w3.org/2000/svg">
<path d="M113.163 132.696C126.211 132.696 136.789 122.118 136.789 109.07C136.789 96.0217 126.211 85.444 113.163 85.444C100.115 85.444 89.5371 96.0217 89.5371 109.07C89.5371 122.118 100.115 132.696 113.163 132.696Z" stroke="#BDC1C5" stroke-width="5" stroke-miterlimit="10"/>
<path d="M101.92 109.068C101.92 104.288 104.9 100.206 109.104 98.578" stroke="#BDC1C5" stroke-width="5" stroke-miterlimit="10" stroke-linecap="round"/>
<path d="M127.201 128.088L137.307 141.17" stroke="#BDC1C5" stroke-width="5" stroke-miterlimit="10" stroke-linecap="round"/>
<path d="M51.1713 47.1079C52.0318 47.1079 52.7293 46.4104 52.7293 45.5499C52.7293 44.6895 52.0318 43.9919 51.1713 43.9919C50.3109 43.9919 49.6133 44.6895 49.6133 45.5499C49.6133 46.4104 50.3109 47.1079 51.1713 47.1079Z" fill="#BDC1C5" stroke="#BDC1C5" stroke-width="5" stroke-miterlimit="10"/>
<path d="M51.1713 80.1079C52.0318 80.1079 52.7293 79.4104 52.7293 78.5499C52.7293 77.6895 52.0318 76.9919 51.1713 76.9919C50.3109 76.9919 49.6133 77.6895 49.6133 78.5499C49.6133 79.4104 50.3109 80.1079 51.1713 80.1079Z" fill="#BDC1C5" stroke="#BDC1C5" stroke-width="5" stroke-miterlimit="10"/>
<path d="M52.7292 111.708C52.7292 112.57 52.0352 113.264 51.1732 113.264C50.3132 113.264 49.6152 112.568 49.6152 111.708C49.6152 110.842 50.3152 110.148 51.1732 110.148C52.0372 110.148 52.7292 110.844 52.7292 111.708Z" fill="#BDC1C5" stroke="#BDC1C5" stroke-width="5" stroke-miterlimit="10"/>
<path d="M32.6895 53.634V34.828C32.6895 31.528 35.3915 28.828 38.6895 28.828H114.356C117.656 28.828 120.356 31.528 120.356 34.828V77.23" stroke="#BDC1C5" stroke-width="5" stroke-miterlimit="10" stroke-linejoin="round"/>
<path d="M32.6895 87.014V62.042H120.096" stroke="#BDC1C5" stroke-width="5" stroke-miterlimit="10"/>
<path d="M85.4575 128.496H38.6895C35.3915 128.496 32.6895 125.796 32.6895 122.496V95.152H36.7495H81.8475" stroke="#BDC1C5" stroke-width="5" stroke-miterlimit="10"/>
</svg>
