<svg width="48" height="49" viewBox="0 0 48 49" fill="none" xmlns="http://www.w3.org/2000/svg">
<mask id="mask0_3492_384469" style="mask-type:alpha" maskUnits="userSpaceOnUse" x="0" y="0" width="48" height="49">
<rect y="0.5" width="48" height="48" fill="#D9D9D9"/>
</mask>
<g mask="url(#mask0_3492_384469)">
<path d="M14 34.5C12.9 34.5 11.9583 34.1083 11.175 33.325C10.3917 32.5417 10 31.6 10 30.5V10.5C10 9.4 10.3917 8.45833 11.175 7.675C11.9583 6.89167 12.9 6.5 14 6.5H42C43.1 6.5 44.0417 6.89167 44.825 7.675C45.6083 8.45833 46 9.4 46 10.5V30.5C46 31.6 45.6083 32.5417 44.825 33.325C44.0417 34.1083 43.1 34.5 42 34.5H14ZM28 25.1L14 15.35V30.5H42V15.35L28 25.1ZM28 20.2L42 10.5H14L28 20.2ZM6 42.5C4.9 42.5 3.95833 42.1083 3.175 41.325C2.39167 40.5417 2 39.6 2 38.5V13.5H6V38.5H39V42.5H6Z" fill="#323C49"/>
</g>
</svg>
