<svg xmlns="http://www.w3.org/2000/svg" width="16" height="17" viewBox="0 0 16 17" fill="none">
  <mask id="mask0_3305_20295" style="mask-type:alpha" maskUnits="userSpaceOnUse" x="0" y="0" width="16" height="17">
    <rect y="0.5" width="16" height="16" fill="#D9D9D9"/>
  </mask>
  <g mask="url(#mask0_3305_20295)">
    <path d="M5.99984 13.8333C5.78873 13.8333 5.59984 13.7722 5.43317 13.65C5.2665 13.5278 5.14428 13.3722 5.0665 13.1833L3.53317 9.16667H0.666504V7.83333H4.4665L5.99984 11.9L9.0665 3.81667C9.14428 3.62778 9.2665 3.47222 9.43317 3.35C9.59984 3.22778 9.78873 3.16667 9.99984 3.16667C10.2109 3.16667 10.3998 3.22778 10.5665 3.35C10.7332 3.47222 10.8554 3.62778 10.9332 3.81667L12.4665 7.83333H15.3332V9.16667H11.5332L9.99984 5.1L6.93317 13.1833C6.85539 13.3722 6.73317 13.5278 6.5665 13.65C6.39984 13.7722 6.21095 13.8333 5.99984 13.8333Z" fill="#323C49"/>
  </g>
</svg>